PathFileType	4	(X/Y/Z)	webcam_static.trc
DataRate	CameraRate	NumFrames	NumMarkers	Units	OrigDataRate	OrigDataStartFrame	OrigNumFrames
29.300983568096093	29.300983568096093	21	12	mm	29.300983568096093	971	1294
Frame#	Time	JOINT_RIGHT_SHOULDER			JOINT_LEFT_SHOULDER			JOINT_RIGHT_ELBOW			JOINT_LEFT_ELBOW			JOINT_LEFT_WRIST			JOINT_RIGHT_WRIST			JOINT_RIGHT_PINKY			JOINT_LEFT_PINKY			JOINT_RIGHT_INDEX			JOINT_LEFT_INDEX			JOINT_RIGHT_HIP			JOINT_LEFT_HIP
		X1	Y1	Z1	X2	Y2	Z2	X3	Y3	Z3	X4	Y4	Z4	X5	Y5	Z5	X6	Y6	Z6	X7	Y7	Z7	X8	Y8	Z8	X9	Y9	Z9	X10	Y10	Z10	X11	Y11	Z11	X12	Y12	Z12

971	1753709341.526700	175.593764	420.968950	168.911576	107.802697	422.786295	-160.151467	150.734022	157.048345	226.240754	77.482395	183.952525	-189.575881	190.388396	-11.526772	-272.475749	240.431592	-47.554474	326.016068	260.810703	-99.064760	353.448719	214.331761	-77.228002	-302.408904	296.131641	-102.346338	340.959519	251.685113	-80.810487	-284.247369	16.618010	1.368553	119.271487	-17.940788	-0.571407	-118.518949
972	1753709341.560982	175.679237	421.300888	168.934405	107.883222	422.864050	-159.973577	150.891393	157.301933	226.236880	77.820793	184.014484	-189.090014	191.295370	-10.946419	-272.214592	240.935817	-47.064953	325.975358	261.688709	-98.657571	353.305489	215.853676	-76.561518	-302.258462	297.068328	-101.758346	340.759665	253.093958	-79.969347	-284.145147	16.602250	1.355886	119.276434	-17.927928	-0.557962	-118.525073
973	1753709341.595410	175.570965	421.448201	168.837547	107.779711	423.148811	-160.033882	150.786296	157.414496	226.234257	77.803433	184.428066	-189.108595	191.330388	-10.213559	-272.178769	240.869179	-46.795234	325.854719	261.645466	-98.490618	353.128135	215.957373	-75.995505	-302.145571	297.008604	-101.469487	340.497047	253.185064	-79.328664	-283.983469	16.626287	1.360303	119.287245	-17.952967	-0.561759	-118.537240
974	1753709341.628106	175.621137	421.742886	168.772116	107.809059	423.286110	-160.024062	150.812820	157.677844	226.033956	77.783734	184.625298	-188.951015	191.358492	-9.786690	-272.008598	240.946457	-46.112344	325.057298	261.846483	-97.919770	351.894587	216.058120	-75.686105	-301.950604	297.245711	-100.700244	339.164972	253.282070	-78.954726	-283.843666	16.629802	1.355420	119.288214	-17.957076	-0.556156	-118.539110
975	1753709341.660451	176.622659	421.883583	168.776989	108.375952	423.404813	-159.989148	151.445985	157.810226	225.994617	78.151360	184.726462	-188.723862	191.892087	-9.423893	-271.841466	241.891012	-45.566589	324.584335	263.119012	-97.549915	351.077825	216.810539	-75.446799	-301.807284	298.626006	-100.094043	338.252455	254.051507	-78.682907	-283.704340	16.656544	1.353585	119.294122	-17.986579	-0.553414	-118.546121
976	1753709341.699305	176.777408	422.117978	168.754160	108.405493	423.710942	-159.984991	151.468083	157.918796	225.750402	78.075573	185.236648	-188.666418	191.708729	-9.025488	-271.799415	241.892993	-45.279443	324.010164	263.134688	-97.386904	350.563735	216.575220	-75.196952	-301.675707	298.617572	-99.860825	337.672114	253.906459	-78.499228	-283.602595	16.706835	1.389617	119.302340	-18.039264	-0.585656	-118.555441
977	1753709341.729613	178.969666	421.855152	168.775678	109.566770	423.732430	-159.912914	153.984115	157.643065	225.764751	79.062745	185.245514	-188.482612	192.818001	-8.896144	-271.567971	244.698703	-45.365747	323.725134	266.065419	-97.540066	350.030988	217.693031	-75.139068	-301.405311	302.036166	-99.907510	337.161571	255.062819	-78.387640	-283.246070	16.743196	1.350220	119.302884	-18.073689	-0.543987	-118.555486
978	1753709341.765141	179.003790	421.882451	168.779507	109.631613	424.092472	-159.894034	154.285640	157.613128	225.733474	79.408683	185.816646	-188.494503	193.929583	-7.887485	-271.548033	245.198607	-45.358252	323.595613	266.560525	-97.539581	349.979341	218.651697	-74.224345	-301.304966	302.518666	-99.897280	337.146461	256.199419	-77.368096	-283.156455	16.745228	1.353090	119.301930	-18.075380	-0.546212	-118.554004
979	1753709341.802297	181.078300	421.875775	168.758824	111.841269	424.032420	-159.819201	156.984359	157.571748	225.711063	82.222432	185.707882	-187.972128	196.322709	-7.722002	-271.087557	247.581795	-45.451280	323.547363	269.366890	-97.720452	349.835694	221.495777	-73.810689	-301.027089	304.996371	-100.009270	336.938143	258.929759	-76.882891	-282.967240	16.749701	1.339345	119.302653	-18.081162	-0.531377	-118.555248
980	1753709341.838706	181.099653	421.767920	168.714285	111.866333	424.154073	-159.830943	156.665638	157.509193	225.614592	82.179666	186.188832	-187.952787	196.314156	-6.674930	-271.054119	246.738657	-45.740087	323.231459	268.008411	-98.280512	349.542528	221.468076	-72.978146	-300.923645	304.050356	-100.546166	336.753786	258.885115	-75.920023	-282.878071	16.764190	1.339152	119.295239	-18.094491	-0.530528	-118.546978
981	1753709341.876765	181.520447	421.792626	168.636873	112.042554	424.350441	-159.901172	156.715408	157.503515	225.346118	82.202777	186.602876	-187.975928	196.387306	-5.766012	-271.135896	246.724308	-45.733955	322.972745	267.974168	-98.310567	349.451691	221.454218	-72.273806	-300.912797	304.041713	-100.564502	336.742342	258.870035	-75.087376	-282.930613	16.776958	1.333684	119.289555	-18.105857	-0.523187	-118.539847
982	1753709341.903314	181.905329	422.061354	168.565691	113.386549	424.380273	-159.926817	156.909466	157.719016	225.237399	84.269576	186.608598	-187.948778	199.131176	-5.468936	-271.156758	247.162044	-45.595441	322.850436	268.475205	-98.230600	349.272877	224.571466	-71.873009	-300.977945	304.834545	-100.476861	336.559176	261.723399	-74.574091	-283.043236	16.688844	1.311692	119.288139	-18.020479	-0.499493	-118.538737
983	1753709341.935493	182.968661	422.116816	168.413311	114.574760	424.316078	-160.043851	158.244252	157.723904	225.001350	85.554034	186.495960	-187.981635	200.196639	-5.438822	-271.297276	248.614043	-45.602027	322.757274	270.147711	-98.244734	349.218726	225.627095	-71.698613	-301.179647	306.350321	-100.498989	336.485982	262.808174	-74.377768	-283.442199	16.686730	1.312559	119.292602	-18.019626	-0.499587	-118.543580
984	1753709341.969440	183.721781	422.158033	168.318436	115.474299	424.127579	-160.070881	158.994555	157.689884	224.681959	86.399689	186.086595	-187.893838	200.518161	-5.498273	-271.373630	249.245241	-45.782160	322.759330	270.942509	-98.541796	349.279016	226.014659	-71.684785	-301.465362	307.089359	-100.846700	336.515248	263.147622	-74.369967	-283.873558	16.687853	1.328255	119.297385	-18.022172	-0.513266	-118.549697
985	1753709342.007351	184.735298	422.178298	168.255761	116.074018	424.128801	-160.096452	159.855068	157.688037	224.621058	86.748876	186.079085	-187.889233	200.875670	-5.430060	-271.397948	250.112265	-45.784164	322.534710	271.786720	-98.565757	349.109590	226.230904	-71.617052	-301.462084	308.109343	-100.869119	336.346865	263.432592	-74.274696	-283.902973	16.685633	1.316873	119.284704	-18.020339	-0.500288	-118.536457
986	1753709342.040715	186.634511	422.175497	168.229952	117.603905	424.027145	-160.132483	161.670685	157.633916	224.577740	88.167988	185.777500	-187.856555	202.099398	-5.445248	-271.400124	252.322108	-45.783620	322.531760	274.270684	-98.566480	349.114716	227.565318	-71.602598	-301.486433	310.812265	-100.855939	336.349875	264.697701	-74.250869	-283.971608	16.686561	1.296011	119.286172	-18.021820	-0.477952	-118.538141
987	1753709342.074847	185.402617	422.170192	168.217197	116.381779	424.053133	-160.215974	159.521818	157.586783	224.559024	86.012296	185.795829	-187.950939	199.813142	-5.643603	-271.403879	249.384433	-45.799322	322.518587	270.526826	-98.580040	349.258095	224.275216	-71.948960	-301.286638	307.087868	-100.912571	336.662591	261.648417	-74.727885	-283.820391	16.686292	1.320173	119.287141	-18.020492	-0.500844	-118.538655
988	1753709342.106538	185.426235	422.253102	168.128088	116.572678	423.917562	-160.262719	159.593076	157.587171	224.429131	87.228291	185.542703	-187.557861	203.066990	-5.294166	-271.048814	249.801323	-45.693398	322.513014	271.111220	-98.478243	349.258512	228.580147	-71.339048	-301.017731	307.692021	-100.702927	336.675316	265.576512	-73.768817	-283.667803	16.694240	1.310814	119.293302	-18.030059	-0.490834	-118.545696
989	1753709342.141073	184.261546	422.262281	168.103516	114.547580	424.012005	-160.354853	157.739326	157.536224	224.321052	85.042514	185.625955	-187.515557	201.787949	-4.989759	-270.667166	248.041540	-45.656800	322.485983	269.124091	-98.460071	349.261701	227.158189	-71.163058	-300.249666	305.798233	-100.659788	336.726725	264.128178	-73.504306	-282.869458	16.832611	1.310563	119.305961	-18.165344	-0.489721	-118.557751
990	1753709342.173537	182.998598	422.430813	167.979121	112.617813	424.227834	-160.529092	156.497002	157.716259	224.263147	82.493916	186.006561	-187.627420	199.960083	-4.674997	-270.640999	247.219846	-45.277551	322.231352	268.322706	-98.116443	349.160194	224.997565	-70.995741	-299.956203	304.943115	-100.353457	336.648852	262.218863	-73.337711	-282.626659	16.861614	1.318203	119.310662	-18.191371	-0.496264	-118.561484
991	1753709342.210087	181.441799	422.502279	167.896941	111.417577	424.260080	-160.620272	155.771881	157.720715	224.198028	81.822596	186.004549	-187.710613	199.542612	-4.688296	-270.678937	246.884018	-45.226615	322.131425	267.992586	-98.061293	349.118948	224.500597	-71.018919	-299.953014	304.529846	-100.314252	336.609334	261.779040	-73.381476	-282.632738	16.872674	1.320419	119.317189	-18.201455	-0.498336	-118.567742
